<mxfile host="app.diagrams.net" modified="2024-02-28T15:46:02.134Z" agent="Mozilla/5.0 (Windows NT 10.0; Win64; x64) AppleWebKit/537.36 (KHTML, like Gecko) Chrome/122.0.0.0 Safari/537.36" etag="lP61JReOHHcw4NcrypD1" version="23.1.5" type="device">
  <diagram id="RX8j35DpNfyJVcPfTA0C" name="Page-1">
    <mxGraphModel dx="882" dy="578" grid="1" gridSize="10" guides="1" tooltips="1" connect="1" arrows="1" fold="1" page="1" pageScale="1" pageWidth="850" pageHeight="1100" math="0" shadow="0">
      <root>
        <mxCell id="0" />
        <mxCell id="1" parent="0" />
        <mxCell id="FOQ5vnoSoBY52XQQI-UN-5" style="edgeStyle=orthogonalEdgeStyle;rounded=0;orthogonalLoop=1;jettySize=auto;html=1;exitX=1;exitY=0.5;exitDx=0;exitDy=0;entryX=0;entryY=0.5;entryDx=0;entryDy=0;" edge="1" parent="1" source="FOQ5vnoSoBY52XQQI-UN-1" target="FOQ5vnoSoBY52XQQI-UN-3">
          <mxGeometry relative="1" as="geometry" />
        </mxCell>
        <mxCell id="FOQ5vnoSoBY52XQQI-UN-1" value="Client" style="rounded=1;whiteSpace=wrap;html=1;" vertex="1" parent="1">
          <mxGeometry x="80" y="80" width="120" height="60" as="geometry" />
        </mxCell>
        <mxCell id="FOQ5vnoSoBY52XQQI-UN-8" style="edgeStyle=orthogonalEdgeStyle;rounded=0;orthogonalLoop=1;jettySize=auto;html=1;exitX=0;exitY=0.5;exitDx=0;exitDy=0;" edge="1" parent="1" source="FOQ5vnoSoBY52XQQI-UN-2" target="FOQ5vnoSoBY52XQQI-UN-1">
          <mxGeometry relative="1" as="geometry" />
        </mxCell>
        <mxCell id="FOQ5vnoSoBY52XQQI-UN-2" value="SSTable" style="rounded=1;whiteSpace=wrap;html=1;" vertex="1" parent="1">
          <mxGeometry x="280" y="200" width="120" height="60" as="geometry" />
        </mxCell>
        <mxCell id="FOQ5vnoSoBY52XQQI-UN-6" style="edgeStyle=orthogonalEdgeStyle;rounded=0;orthogonalLoop=1;jettySize=auto;html=1;exitX=0.5;exitY=1;exitDx=0;exitDy=0;entryX=0.5;entryY=0;entryDx=0;entryDy=0;" edge="1" parent="1" source="FOQ5vnoSoBY52XQQI-UN-3" target="FOQ5vnoSoBY52XQQI-UN-4">
          <mxGeometry relative="1" as="geometry" />
        </mxCell>
        <mxCell id="FOQ5vnoSoBY52XQQI-UN-3" value="Memory cache" style="rounded=1;whiteSpace=wrap;html=1;" vertex="1" parent="1">
          <mxGeometry x="520" y="80" width="120" height="60" as="geometry" />
        </mxCell>
        <mxCell id="FOQ5vnoSoBY52XQQI-UN-7" style="edgeStyle=orthogonalEdgeStyle;rounded=0;orthogonalLoop=1;jettySize=auto;html=1;exitX=0;exitY=0.5;exitDx=0;exitDy=0;" edge="1" parent="1" source="FOQ5vnoSoBY52XQQI-UN-4" target="FOQ5vnoSoBY52XQQI-UN-2">
          <mxGeometry relative="1" as="geometry" />
        </mxCell>
        <mxCell id="FOQ5vnoSoBY52XQQI-UN-4" value="Bloom filter" style="rounded=1;whiteSpace=wrap;html=1;" vertex="1" parent="1">
          <mxGeometry x="520" y="200" width="120" height="60" as="geometry" />
        </mxCell>
      </root>
    </mxGraphModel>
  </diagram>
</mxfile>
